<svg xmlns="http://www.w3.org/2000/svg" viewBox="0 0 640 640">
  <defs>
    <linearGradient id="bg" x1="0" x2="1" y1="0" y2="1">
      <stop offset="0" stop-color="#f7c58e"/>
      <stop offset="1" stop-color="#5b2d12"/>
    </linearGradient>
  </defs>
  <rect width="640" height="640" fill="url(#bg)"/>
  <circle cx="146" cy="118" r="76" fill="#fff4e7" opacity=".35"/>
  <path d="M223 205h194l-23 285a42 42 0 0 1-42 39h-64a42 42 0 0 1-42-39l-23-285Z" fill="#fff7ed"/>
  <path d="M247 276h146l-17 203a22 22 0 0 1-22 20h-68a22 22 0 0 1-22-20l-17-203Z" fill="#743916"/>
  <path d="M239 232h162" stroke="#4b240f" stroke-width="22" stroke-linecap="round"/>
  <path d="M265 326c48-42 86 38 126-4" fill="none" stroke="#f4c99d" stroke-width="24" stroke-linecap="round"/>
  <path d="M286 164c0-46 58-43 58-87" fill="none" stroke="#fff7ed" stroke-width="20" stroke-linecap="round" opacity=".75"/>
</svg>
