<svg xmlns="http://www.w3.org/2000/svg" viewBox="0 0 640 640">
  <defs>
    <linearGradient id="bg" x1="0" x2="1" y1="0" y2="1">
      <stop offset="0" stop-color="#c8f0be"/>
      <stop offset="1" stop-color="#f59e7b"/>
    </linearGradient>
  </defs>
  <rect width="640" height="640" fill="url(#bg)"/>
  <path d="M221 184h198l-28 311a48 48 0 0 1-48 44h-46a48 48 0 0 1-48-44l-28-311Z" fill="#fff7ee"/>
  <path d="M254 286h132l-17 203a24 24 0 0 1-24 22h-50a24 24 0 0 1-24-22l-17-203Z" fill="#f6b377"/>
  <circle cx="243" cy="170" r="42" fill="#6aa74f"/>
  <circle cx="372" cy="158" r="50" fill="#ef6f65"/>
  <circle cx="384" cy="158" r="18" fill="#ffd4cf"/>
  <path d="M278 340c48-26 84 31 124 0" fill="none" stroke="#fff0dc" stroke-width="22" stroke-linecap="round"/>
  <path d="M326 184 363 78" stroke="#fff7ee" stroke-width="18" stroke-linecap="round"/>
</svg>
